<svg xmlns="http://www.w3.org/2000/svg" width="1740" height="1180" viewBox="0 0 1740 1180"><rect width="1740" height="1180" fill="#ffffff"/><rect x="8" y="8" width="1724" height="1164" rx="16" fill="none" stroke="#eef2f7" stroke-width="2"/><text x="40.0" y="58.0" font-family="'Helvetica Neue','Helvetica','Arial',sans-serif" font-size="30" font-weight="bold" fill="#0f172a" text-anchor="start">UR Subnet — Mechanism at a glance</text><text x="40.0" y="86.0" font-family="'Helvetica Neue','Helvetica','Arial',sans-serif" font-size="14.5" font-weight="normal" fill="#475569" text-anchor="start">How money moves in three coupled channels (all denominated in the subnet's α token).  §1 of the whitepaper.</text><line x1="40" y1="104" x2="1700" y2="104" stroke="#e2e8f0" stroke-width="1.5"/><rect x="43.0" y="155.0" width="250" height="96" rx="13" fill="#0f172a" opacity="0.07"/><rect x="40.0" y="150.0" width="250" height="96" rx="13" fill="#ffffff" stroke="#64748b" stroke-width="1.8"/><path d="M 45.0 163.0 a 8 8 0 0 1 8 -8 L 277.0 155.0" fill="none"/><path d="M 40.0 163.0 Q 40.0 150.0 53.0 150.0 L 277.0 150.0 Q 290.0 150.0 290.0 163.0 L 290.0 180.0 L 40.0 180.0 Z" fill="#f8fafc"/><line x1="40.0" y1="180.0" x2="290.0" y2="180.0" stroke="#64748b" stroke-width="1"/><text x="54.0" y="171.0" font-family="'Helvetica Neue','Helvetica','Arial',sans-serif" font-size="15.5" font-weight="bold" fill="#475569" text-anchor="start">Customers</text><text x="54.0" y="200.0" font-family="'Helvetica Neue','Helvetica','Arial',sans-serif" font-size="12" font-weight="normal" fill="#0f172a" text-anchor="start">carries paid VPN/privacy</text><text x="54.0" y="217.0" font-family="'Helvetica Neue','Helvetica','Arial',sans-serif" font-size="12" font-weight="normal" fill="#0f172a" text-anchor="start">traffic — the real demand</text><rect x="43.0" y="377.0" width="300" height="184" rx="13" fill="#0f172a" opacity="0.07"/><rect x="40.0" y="372.0" width="300" height="184" rx="13" fill="#ffffff" stroke="#2563eb" stroke-width="1.8"/><path d="M 45.0 385.0 a 8 8 0 0 1 8 -8 L 327.0 377.0" fill="none"/><path d="M 40.0 385.0 Q 40.0 372.0 53.0 372.0 L 327.0 372.0 Q 340.0 372.0 340.0 385.0 L 340.0 402.0 L 40.0 402.0 Z" fill="#eff6ff"/><line x1="40.0" y1="402.0" x2="340.0" y2="402.0" stroke="#2563eb" stroke-width="1"/><text x="54.0" y="393.0" font-family="'Helvetica Neue','Helvetica','Arial',sans-serif" font-size="15.5" font-weight="bold" fill="#1d4ed8" text-anchor="start">Network Operator (NO)</text><text x="54.0" y="422.0" font-family="'Helvetica Neue','Helvetica','Arial',sans-serif" font-size="12" font-weight="normal" fill="#0f172a" text-anchor="start">runs privacy servers + the</text><text x="54.0" y="439.0" font-family="'Helvetica Neue','Helvetica','Arial',sans-serif" font-size="12" font-weight="normal" fill="#0f172a" text-anchor="start">/verify server (co-signs trails)</text><text x="54.0" y="456.1" font-family="'Helvetica Neue','Helvetica','Arial',sans-serif" font-size="12" font-weight="normal" fill="#0f172a" text-anchor="start"></text><text x="54.0" y="473.1" font-family="'Helvetica Neue','Helvetica','Arial',sans-serif" font-size="12" font-weight="normal" fill="#0f172a" text-anchor="start">holds NO α only — never holds</text><text x="54.0" y="490.2" font-family="'Helvetica Neue','Helvetica','Arial',sans-serif" font-size="12" font-weight="normal" fill="#0f172a" text-anchor="start">others' emission; directs the split</text><rect x="99.0" y="909.0" width="452" height="150" rx="13" fill="#0f172a" opacity="0.07"/><rect x="96.0" y="904.0" width="452" height="150" rx="13" fill="#ffffff" stroke="#7c3aed" stroke-width="1.8"/><path d="M 101.0 917.0 a 8 8 0 0 1 8 -8 L 535.0 909.0" fill="none"/><path d="M 96.0 917.0 Q 96.0 904.0 109.0 904.0 L 535.0 904.0 Q 548.0 904.0 548.0 917.0 L 548.0 934.0 L 96.0 934.0 Z" fill="#f5f3ff"/><line x1="96.0" y1="934.0" x2="548.0" y2="934.0" stroke="#7c3aed" stroke-width="1"/><text x="110.0" y="925.0" font-family="'Helvetica Neue','Helvetica','Arial',sans-serif" font-size="15.5" font-weight="bold" fill="#6d28d9" text-anchor="start">Providers  (miners, 100k+)</text><text x="110.0" y="954.0" font-family="'Helvetica Neue','Helvetica','Arial',sans-serif" font-size="12" font-weight="normal" fill="#0f172a" text-anchor="start">carry ingress / egress traffic. Inside a NO's pool — NOT on-chain UIDs</text><text x="110.0" y="971.0" font-family="'Helvetica Neue','Helvetica','Arial',sans-serif" font-size="12" font-weight="normal" fill="#0f172a" text-anchor="start">(subnet cap ≈ 256), so each is a client_id paid by Merkle claim.</text><text x="110.0" y="988.1" font-family="'Helvetica Neue','Helvetica','Arial',sans-serif" font-size="12" font-weight="normal" fill="#0f172a" text-anchor="start">claim α directly from the contract with an O(log N) proof.</text><rect x="775.0" y="143.0" width="486" height="134" rx="13" fill="#0f172a" opacity="0.07"/><rect x="772.0" y="138.0" width="486" height="134" rx="13" fill="#ffffff" stroke="#0d9488" stroke-width="1.8"/><path d="M 777.0 151.0 a 8 8 0 0 1 8 -8 L 1245.0 143.0" fill="none"/><path d="M 772.0 151.0 Q 772.0 138.0 785.0 138.0 L 1245.0 138.0 Q 1258.0 138.0 1258.0 151.0 L 1258.0 168.0 L 772.0 168.0 Z" fill="#ecfdf5"/><line x1="772.0" y1="168.0" x2="1258.0" y2="168.0" stroke="#0d9488" stroke-width="1"/><text x="786.0" y="159.0" font-family="'Helvetica Neue','Helvetica','Arial',sans-serif" font-size="15.5" font-weight="bold" fill="#0f766e" text-anchor="start">Bittensor coinbase  (α emission)</text><rect x="786.0" y="196" width="82.4" height="30" fill="#64748b" opacity="0.9"/><text x="827.2" y="215.8" font-family="'Helvetica Neue','Helvetica','Arial',sans-serif" font-size="11.5" font-weight="bold" fill="white" text-anchor="middle">owner 18%</text><rect x="868.4" y="196" width="187.8" height="30" fill="#0d9488" opacity="0.9"/><text x="962.3" y="215.8" font-family="'Helvetica Neue','Helvetica','Arial',sans-serif" font-size="11.5" font-weight="bold" fill="white" text-anchor="middle">miner 41%</text><rect x="1056.2" y="196" width="187.8" height="30" fill="#d97706" opacity="0.9"/><text x="1150.1" y="215.8" font-family="'Helvetica Neue','Helvetica','Arial',sans-serif" font-size="11.5" font-weight="bold" fill="white" text-anchor="middle">validator 41%</text><rect x="786" y="196" width="458" height="30" rx="4" fill="none" stroke="#0d9488" stroke-width="1.2"/><text x="786.0" y="250.0" font-family="'Helvetica Neue','Helvetica','Arial',sans-serif" font-size="11.5" font-weight="italic" fill="#475569" text-anchor="start">standard 18 / 41 / 41 split — we do not fight the coinbase</text><rect x="1441.0" y="155.0" width="262" height="96" rx="13" fill="#0f172a" opacity="0.07"/><rect x="1438.0" y="150.0" width="262" height="96" rx="13" fill="#ffffff" stroke="#64748b" stroke-width="1.8"/><path d="M 1443.0 163.0 a 8 8 0 0 1 8 -8 L 1687.0 155.0" fill="none"/><path d="M 1438.0 163.0 Q 1438.0 150.0 1451.0 150.0 L 1687.0 150.0 Q 1700.0 150.0 1700.0 163.0 L 1700.0 180.0 L 1438.0 180.0 Z" fill="#f8fafc"/><line x1="1438.0" y1="180.0" x2="1700.0" y2="180.0" stroke="#64748b" stroke-width="1"/><text x="1452.0" y="171.0" font-family="'Helvetica Neue','Helvetica','Arial',sans-serif" font-size="15.5" font-weight="bold" fill="#475569" text-anchor="start">Subnet owner</text><text x="1452.0" y="200.0" font-family="'Helvetica Neue','Helvetica','Arial',sans-serif" font-size="11.5" font-weight="normal" fill="#0f172a" text-anchor="start">18% owner cut. A slice ω</text><text x="1452.0" y="216.3" font-family="'Helvetica Neue','Helvetica','Arial',sans-serif" font-size="11.5" font-weight="normal" fill="#0f172a" text-anchor="start">co-funds the effort bounty.</text><rect x="1441.0" y="335.0" width="262" height="180" rx="13" fill="#0f172a" opacity="0.07"/><rect x="1438.0" y="330.0" width="262" height="180" rx="13" fill="#ffffff" stroke="#d97706" stroke-width="1.8"/><path d="M 1443.0 343.0 a 8 8 0 0 1 8 -8 L 1687.0 335.0" fill="none"/><path d="M 1438.0 343.0 Q 1438.0 330.0 1451.0 330.0 L 1687.0 330.0 Q 1700.0 330.0 1700.0 343.0 L 1700.0 360.0 L 1438.0 360.0 Z" fill="#fffbeb"/><line x1="1438.0" y1="360.0" x2="1700.0" y2="360.0" stroke="#d97706" stroke-width="1"/><text x="1452.0" y="351.0" font-family="'Helvetica Neue','Helvetica','Arial',sans-serif" font-size="15.5" font-weight="bold" fill="#b45309" text-anchor="start">Independent validators</text><text x="1452.0" y="380.0" font-family="'Helvetica Neue','Helvetica','Arial',sans-serif" font-size="11.5" font-weight="normal" fill="#0f172a" text-anchor="start">anyone who stakes own α and</text><text x="1452.0" y="396.3" font-family="'Helvetica Neue','Helvetica','Arial',sans-serif" font-size="11.5" font-weight="normal" fill="#0f172a" text-anchor="start">runs /verify trails. No NO, no pool.</text><text x="1452.0" y="412.7" font-family="'Helvetica Neue','Helvetica','Arial',sans-serif" font-size="11.5" font-weight="normal" fill="#0f172a" text-anchor="start"></text><text x="1452.0" y="429.0" font-family="'Helvetica Neue','Helvetica','Arial',sans-serif" font-size="11.5" font-weight="normal" fill="#0f172a" text-anchor="start">earn native dividends (by</text><text x="1452.0" y="445.3" font-family="'Helvetica Neue','Helvetica','Arial',sans-serif" font-size="11.5" font-weight="normal" fill="#0f172a" text-anchor="start">stake × vtrust)  +  effort bounty</text><rect x="1441.0" y="545.0" width="262" height="112" rx="13" fill="#0f172a" opacity="0.07"/><rect x="1438.0" y="540.0" width="262" height="112" rx="13" fill="#ffffff" stroke="#d97706" stroke-width="1.8"/><path d="M 1443.0 553.0 a 8 8 0 0 1 8 -8 L 1687.0 545.0" fill="none"/><path d="M 1438.0 553.0 Q 1438.0 540.0 1451.0 540.0 L 1687.0 540.0 Q 1700.0 540.0 1700.0 553.0 L 1700.0 570.0 L 1438.0 570.0 Z" fill="#fffbeb"/><line x1="1438.0" y1="570.0" x2="1700.0" y2="570.0" stroke="#d97706" stroke-width="1"/><text x="1452.0" y="561.0" font-family="'Helvetica Neue','Helvetica','Arial',sans-serif" font-size="14.5" font-weight="bold" fill="#b45309" text-anchor="start">Yuma consensus</text><text x="1452.0" y="590.0" font-family="'Helvetica Neue','Helvetica','Arial',sans-serif" font-size="11.5" font-weight="normal" fill="#0f172a" text-anchor="start">stake-weighted median +</text><text x="1452.0" y="606.3" font-family="'Helvetica Neue','Helvetica','Arial',sans-serif" font-size="11.5" font-weight="normal" fill="#0f172a" text-anchor="start">clipping + vtrust, under</text><text x="1452.0" y="622.7" font-family="'Helvetica Neue','Helvetica','Arial',sans-serif" font-size="11.5" font-weight="normal" fill="#0f172a" text-anchor="start">commit–reveal weights</text><rect x="1441.0" y="689.0" width="262" height="110" rx="12" fill="#0f172a" opacity="0.07"/><rect x="1438.0" y="684.0" width="262" height="110" rx="12" fill="#fffbeb" stroke="#d97706" stroke-width="1.4" stroke-dasharray="5 4"/><text x="1452.0" y="706.0" font-family="'Helvetica Neue','Helvetica','Arial',sans-serif" font-size="12.5" font-weight="bold" fill="#b45309" text-anchor="start">Anti-gaming stack — ON</text><text x="1452.0" y="726.0" font-family="'Helvetica Neue','Helvetica','Arial',sans-serif" font-size="11" font-weight="normal" fill="#0f172a" text-anchor="start">commit–reveal · clip + vtrust</text><text x="1452.0" y="741.0" font-family="'Helvetica Neue','Helvetica','Arial',sans-serif" font-size="11" font-weight="normal" fill="#0f172a" text-anchor="start">self-weight mask</text><text x="1452.0" y="756.0" font-family="'Helvetica Neue','Helvetica','Arial',sans-serif" font-size="11" font-weight="normal" fill="#0f172a" text-anchor="start">bonds / Liquid Alpha</text><rect x="375.0" y="155.0" width="372" height="250" rx="12" fill="#0f172a" opacity="0.07"/><rect x="372.0" y="150.0" width="372" height="250" rx="12" fill="#ffffff" stroke="#cbd5e1" stroke-width="1.4"/><text x="388.0" y="176.0" font-family="'Helvetica Neue','Helvetica','Arial',sans-serif" font-size="14" font-weight="bold" fill="#0f172a" text-anchor="start">Flows  (all in α)</text><circle cx="400.0" cy="204.0" r="10" fill="#2563eb" stroke="white" stroke-width="2"/><text x="400.0" y="207.6" font-family="'Helvetica Neue','Helvetica','Arial',sans-serif" font-size="10.5" font-weight="bold" fill="white" text-anchor="middle">1</text><line x1="418" y1="204" x2="448" y2="204" stroke="#2563eb" stroke-width="3.6" stroke-linecap="round"/><path d="M 448.0 204.0 L 440.2 208.5 L 440.2 199.5 Z" fill="#2563eb"/><text x="462.0" y="201.0" font-family="'Helvetica Neue','Helvetica','Arial',sans-serif" font-size="12.5" font-weight="bold" fill="#0f172a" text-anchor="start">Deposits (DT)</text><text x="462.0" y="217.0" font-family="'Helvetica Neue','Helvetica','Arial',sans-serif" font-size="11" font-weight="normal" fill="#475569" text-anchor="start">the costly demand signal</text><circle cx="400.0" cy="237.0" r="10" fill="#0d9488" stroke="white" stroke-width="2"/><text x="400.0" y="240.6" font-family="'Helvetica Neue','Helvetica','Arial',sans-serif" font-size="10.5" font-weight="bold" fill="white" text-anchor="middle">2</text><line x1="418" y1="237" x2="448" y2="237" stroke="#0d9488" stroke-width="3.6" stroke-linecap="round"/><path d="M 448.0 237.0 L 440.2 241.5 L 440.2 232.5 Z" fill="#0d9488"/><text x="462.0" y="234.0" font-family="'Helvetica Neue','Helvetica','Arial',sans-serif" font-size="12.5" font-weight="bold" fill="#0f172a" text-anchor="start">Emission</text><text x="462.0" y="250.0" font-family="'Helvetica Neue','Helvetica','Arial',sans-serif" font-size="11" font-weight="normal" fill="#475569" text-anchor="start">Yuma consensus over NO pools</text><circle cx="400.0" cy="270.0" r="10" fill="#7c3aed" stroke="white" stroke-width="2"/><text x="400.0" y="273.6" font-family="'Helvetica Neue','Helvetica','Arial',sans-serif" font-size="10.5" font-weight="bold" fill="white" text-anchor="middle">3</text><line x1="418" y1="270" x2="448" y2="270" stroke="#7c3aed" stroke-width="3.6" stroke-linecap="round"/><path d="M 448.0 270.0 L 440.2 274.5 L 440.2 265.5 Z" fill="#7c3aed"/><text x="462.0" y="267.0" font-family="'Helvetica Neue','Helvetica','Arial',sans-serif" font-size="12.5" font-weight="bold" fill="#0f172a" text-anchor="start">Settlement</text><text x="462.0" y="283.0" font-family="'Helvetica Neue','Helvetica','Arial',sans-serif" font-size="11" font-weight="normal" fill="#475569" text-anchor="start">per-NO Merkle payout claims</text><line x1="418" y1="303" x2="448" y2="303" stroke="#d97706" stroke-width="3.6" stroke-linecap="round" stroke-dasharray="6 4"/><path d="M 448.0 303.0 L 440.2 307.5 L 440.2 298.5 Z" fill="#d97706"/><text x="462.0" y="300.0" font-family="'Helvetica Neue','Helvetica','Arial',sans-serif" font-size="12.5" font-weight="bold" fill="#0f172a" text-anchor="start">Evaluation / quality</text><text x="462.0" y="316.0" font-family="'Helvetica Neue','Helvetica','Arial',sans-serif" font-size="11" font-weight="normal" fill="#475569" text-anchor="start">VERIFIER.md /verify trails</text><line x1="418" y1="336" x2="448" y2="336" stroke="#e11d48" stroke-width="3.6" stroke-linecap="round"/><path d="M 448.0 336.0 L 440.2 340.5 L 440.2 331.5 Z" fill="#e11d48"/><text x="462.0" y="333.0" font-family="'Helvetica Neue','Helvetica','Arial',sans-serif" font-size="12.5" font-weight="bold" fill="#0f172a" text-anchor="start">Effort bounty</text><text x="462.0" y="349.0" font-family="'Helvetica Neue','Helvetica','Arial',sans-serif" font-size="11" font-weight="normal" fill="#475569" text-anchor="start">fee-funded validator reward</text><line x1="418" y1="369" x2="448" y2="369" stroke="#64748b" stroke-width="3.6" stroke-linecap="round" stroke-dasharray="6 4"/><path d="M 448.0 369.0 L 440.2 373.5 L 440.2 364.5 Z" fill="#64748b"/><text x="462.0" y="366.0" font-family="'Helvetica Neue','Helvetica','Arial',sans-serif" font-size="12.5" font-weight="bold" fill="#0f172a" text-anchor="start">Off-chain</text><text x="462.0" y="382.0" font-family="'Helvetica Neue','Helvetica','Arial',sans-serif" font-size="11" font-weight="normal" fill="#475569" text-anchor="start">revenue &amp; operations</text><rect x="407.0" y="475.0" width="812" height="362" rx="14" fill="#0f172a" opacity="0.07"/><rect x="404.0" y="470.0" width="812" height="362" rx="14" fill="#f8fafc" stroke="#334155" stroke-width="2.0"/><path d="M 404 484 Q 404 470 418 470 L 1202 470 Q 1216 470 1216 484 L 1216 516 L 404 516 Z" fill="#1e293b"/><text x="422.0" y="500.0" font-family="'Helvetica Neue','Helvetica','Arial',sans-serif" font-size="16.5" font-weight="bold" fill="white" text-anchor="start">ST CONTRACT</text><text x="566.0" y="500.0" font-family="'Helvetica Neue','Helvetica','Arial',sans-serif" font-size="12.5" font-weight="normal" fill="#cbd5e1" text-anchor="start">— Subtensor EVM · custodian + deposit ledger + 7-day settlement</text><text x="1200.0" y="500.0" font-family="'Helvetica Neue','Helvetica','Arial',sans-serif" font-size="11.5" font-weight="italic" fill="#94a3b8" text-anchor="end">owns each NO's miner-pool UID</text><rect x="420.0" y="528.0" width="382.0" height="140" rx="10" fill="#eff6ff" stroke="#2563eb" stroke-width="1.5"/><text x="432.0" y="552.0" font-family="'Helvetica Neue','Helvetica','Arial',sans-serif" font-size="13.5" font-weight="bold" fill="#1d4ed8" text-anchor="start">Deposit ledger</text><text x="432.0" y="574.0" font-family="'Helvetica Neue','Helvetica','Arial',sans-serif" font-size="11.5" font-weight="normal" fill="#0f172a" text-anchor="start">Dn = SUM(DT) per NO, per epoch.</text><text x="432.0" y="591.0" font-family="'Helvetica Neue','Helvetica','Arial',sans-serif" font-size="11.5" font-weight="normal" fill="#0f172a" text-anchor="start">The single quantity that weights</text><text x="432.0" y="608.0" font-family="'Helvetica Neue','Helvetica','Arial',sans-serif" font-size="11.5" font-weight="normal" fill="#0f172a" text-anchor="start">everything else:</text><text x="432.0" y="625.0" font-family="'Helvetica Neue','Helvetica','Arial',sans-serif" font-size="11.5" font-weight="normal" fill="#0f172a" text-anchor="start">   w_n = Dn / Σ Dm   (demand share)</text><text x="432.0" y="656.0" font-family="'Helvetica Neue','Helvetica','Arial',sans-serif" font-size="10.5" font-weight="italic" fill="#1d4ed8" text-anchor="start">objective, revenue-backed anchor</text><rect x="818.0" y="528.0" width="382.0" height="140" rx="10" fill="#ecfdf5" stroke="#0d9488" stroke-width="1.5"/><text x="830.0" y="552.0" font-family="'Helvetica Neue','Helvetica','Arial',sans-serif" font-size="13.5" font-weight="bold" fill="#0f766e" text-anchor="start">Miner-pool UIDs  (one per NO)</text><text x="830.0" y="574.0" font-family="'Helvetica Neue','Helvetica','Arial',sans-serif" font-size="11.5" font-weight="normal" fill="#0f172a" text-anchor="start">contract-owned accrual slots — no</text><text x="830.0" y="591.0" font-family="'Helvetica Neue','Helvetica','Arial',sans-serif" font-size="11.5" font-weight="normal" fill="#0f172a" text-anchor="start">emission ever touches a NO's keys.</text><text x="830.0" y="608.0" font-family="'Helvetica Neue','Helvetica','Arial',sans-serif" font-size="11.5" font-weight="normal" fill="#0f172a" text-anchor="start"></text><text x="830.0" y="625.0" font-family="'Helvetica Neue','Helvetica','Arial',sans-serif" font-size="11.5" font-weight="normal" fill="#0f172a" text-anchor="start">weight  w_n = deposit_n × Q_n</text><rect x="828.0" y="628" width="362.0" height="26" rx="5" fill="white" stroke="#0d9488" stroke-width="1.2"/><text x="836.0" y="646.0" font-family="'Menlo','Monaco',monospace" font-size="12" font-weight="bold" fill="#0f766e" text-anchor="start">deposit × quality</text><text x="1186.0" y="646.0" font-family="'Helvetica Neue','Helvetica','Arial',sans-serif" font-size="10.5" font-weight="italic" fill="#475569" text-anchor="end">drives 41% miner emission</text><rect x="420.0" y="684.0" width="382.0" height="126" rx="10" fill="#f5f3ff" stroke="#7c3aed" stroke-width="1.5"/><text x="432.0" y="708.0" font-family="'Helvetica Neue','Helvetica','Arial',sans-serif" font-size="13.5" font-weight="bold" fill="#6d28d9" text-anchor="start">Per-NO Merkle payout roots</text><text x="432.0" y="730.0" font-family="'Helvetica Neue','Helvetica','Arial',sans-serif" font-size="11.5" font-weight="normal" fill="#0f172a" text-anchor="start">pool = earned α + refundable deposit.</text><text x="432.0" y="747.0" font-family="'Helvetica Neue','Helvetica','Arial',sans-serif" font-size="11.5" font-weight="normal" fill="#0f172a" text-anchor="start">NO commits a payout root each epoch;</text><text x="432.0" y="764.0" font-family="'Helvetica Neue','Helvetica','Arial',sans-serif" font-size="11.5" font-weight="normal" fill="#0f172a" text-anchor="start">it directs the split but never holds α.</text><rect x="818.0" y="684.0" width="382.0" height="126" rx="10" fill="#fff1f2" stroke="#e11d48" stroke-width="1.5"/><text x="830.0" y="708.0" font-family="'Helvetica Neue','Helvetica','Arial',sans-serif" font-size="13.5" font-weight="bold" fill="#be123c" text-anchor="start">FeePool — effort bounty</text><text x="830.0" y="730.0" font-family="'Helvetica Neue','Helvetica','Arial',sans-serif" font-size="11.5" font-weight="normal" fill="#0f172a" text-anchor="start">FeePool = φ·Σ Dn  +  ω·OwnerCut</text><text x="830.0" y="747.0" font-family="'Helvetica Neue','Helvetica','Arial',sans-serif" font-size="11.5" font-weight="normal" fill="#0f172a" text-anchor="start">paid out by each validator's verified,</text><text x="830.0" y="764.0" font-family="'Helvetica Neue','Helvetica','Arial',sans-serif" font-size="11.5" font-weight="normal" fill="#0f172a" text-anchor="start">coverage-weighted completed trails.</text><line x1="165.0" y1="246.0" x2="165.0" y2="363.6" stroke="#64748b" stroke-width="2.4" stroke-linecap="round"/><path d="M 165.0 372.0 L 159.0 361.6 L 171.0 361.6 Z" fill="#64748b"/><rect x="85.1" y="288.5" width="159.9" height="41.0" rx="7" fill="white" stroke="#64748b" stroke-width="1.1" opacity="0.97"/><text x="165.0" y="305.5" font-family="'Helvetica Neue','Helvetica','Arial',sans-serif" font-size="11" font-weight="normal" fill="#475569" text-anchor="middle">usage revenue ($)</text><text x="165.0" y="320.0" font-family="'Helvetica Neue','Helvetica','Arial',sans-serif" font-size="11" font-weight="normal" fill="#475569" text-anchor="middle">off-chain reference rate</text><polyline points="340.0,452.0 372.0,452.0 372.0,588.0 418.0,588.0" fill="none" stroke="#2563eb" stroke-width="2.8" stroke-linejoin="round" stroke-linecap="round"/><path d="M 418.0 588.0 L 407.6 594.0 L 407.6 582.0 Z" fill="#2563eb"/><rect x="304.5" y="398.8" width="135.1" height="42.4" rx="7" fill="white" stroke="#2563eb" stroke-width="1.1" opacity="0.97"/><text x="372.0" y="416.2" font-family="'Helvetica Neue','Helvetica','Arial',sans-serif" font-size="11.5" font-weight="bold" fill="#1d4ed8" text-anchor="middle">deposit α  (DT)</text><text x="372.0" y="431.4" font-family="'Helvetica Neue','Helvetica','Arial',sans-serif" font-size="11.5" font-weight="bold" fill="#1d4ed8" text-anchor="middle">SUM = demand signal</text><circle cx="372.0" cy="452.0" r="13" fill="#2563eb" stroke="white" stroke-width="2"/><text x="372.0" y="456.7" font-family="'Helvetica Neue','Helvetica','Arial',sans-serif" font-size="13.65" font-weight="bold" fill="white" text-anchor="middle">1</text><line x1="1014.0" y1="272.0" x2="1009.2" y2="517.6" stroke="#0d9488" stroke-width="2.8" stroke-linecap="round"/><path d="M 1009.0 526.0 L 1003.2 515.5 L 1015.2 515.7 Z" fill="#0d9488"/><rect x="954.0" y="380.8" width="135.1" height="42.4" rx="7" fill="white" stroke="#0d9488" stroke-width="1.1" opacity="0.97"/><text x="1021.5" y="398.2" font-family="'Helvetica Neue','Helvetica','Arial',sans-serif" font-size="11.5" font-weight="bold" fill="#0f766e" text-anchor="middle">41% miner emission</text><text x="1021.5" y="413.4" font-family="'Helvetica Neue','Helvetica','Arial',sans-serif" font-size="11.5" font-weight="bold" fill="#0f766e" text-anchor="middle">accrues to contract</text><circle cx="1014.0" cy="300.0" r="13" fill="#0d9488" stroke="white" stroke-width="2"/><text x="1014.0" y="304.7" font-family="'Helvetica Neue','Helvetica','Arial',sans-serif" font-size="13.65" font-weight="bold" fill="white" text-anchor="middle">2</text><polyline points="1258.0,196.0 1410.0,196.0 1410.0,360.0 1436.0,360.0" fill="none" stroke="#0d9488" stroke-width="2.4" stroke-linejoin="round" stroke-linecap="round"/><path d="M 1436.0 360.0 L 1425.6 366.0 L 1425.6 354.0 Z" fill="#0d9488"/><rect x="1301.0" y="279.5" width="117.9" height="41.0" rx="7" fill="white" stroke="#0d9488" stroke-width="1.1" opacity="0.97"/><text x="1360.0" y="296.5" font-family="'Helvetica Neue','Helvetica','Arial',sans-serif" font-size="11" font-weight="normal" fill="#0f766e" text-anchor="middle">41% validator</text><text x="1360.0" y="311.0" font-family="'Helvetica Neue','Helvetica','Arial',sans-serif" font-size="11" font-weight="normal" fill="#0f766e" text-anchor="middle">emission (native)</text><line x1="1258.0" y1="168.0" x2="1427.6" y2="179.4" stroke="#0d9488" stroke-width="2.2" stroke-linecap="round"/><path d="M 1436.0 180.0 L 1425.2 185.3 L 1426.0 173.3 Z" fill="#0d9488"/><rect x="1331.0" y="136.7" width="34.0" height="26.5" rx="7" fill="white" stroke="#0d9488" stroke-width="1.1" opacity="0.97"/><text x="1348.0" y="153.8" font-family="'Helvetica Neue','Helvetica','Arial',sans-serif" font-size="11" font-weight="bold" fill="#0f766e" text-anchor="middle">18%</text><line x1="1569.0" y1="510.0" x2="1569.0" y2="532.3" stroke="#d97706" stroke-width="2.4" stroke-linecap="round"/><path d="M 1569.0 540.0 L 1563.5 530.5 L 1574.5 530.5 Z" fill="#d97706"/><rect x="1440.8" y="512.1" width="256.3" height="25.9" rx="7" fill="white" stroke="#d97706" stroke-width="1.1" opacity="0.97"/><text x="1569.0" y="528.7" font-family="'Helvetica Neue','Helvetica','Arial',sans-serif" font-size="10.5" font-weight="normal" fill="#b45309" text-anchor="middle">scores: deposit × quality  (commit–reveal)</text><polyline points="1436.0,596.0 1300.0,596.0 1300.0,598.0 1202.0,598.0" fill="none" stroke="#d97706" stroke-width="2.6" stroke-linejoin="round" stroke-linecap="round"/><path d="M 1202.0 598.0 L 1212.4 592.0 L 1212.4 604.0 Z" fill="#d97706"/><rect x="1270.0" y="555.5" width="129.9" height="41.0" rx="7" fill="white" stroke="#d97706" stroke-width="1.1" opacity="0.97"/><text x="1335.0" y="572.5" font-family="'Helvetica Neue','Helvetica','Arial',sans-serif" font-size="11" font-weight="normal" fill="#b45309" text-anchor="middle">consensus weight</text><text x="1335.0" y="587.0" font-family="'Helvetica Neue','Helvetica','Arial',sans-serif" font-size="11" font-weight="normal" fill="#b45309" text-anchor="middle">sets miner emission</text><polyline points="1202.0,747.0 1360.0,747.0 1360.0,470.0 1436.0,470.0" fill="none" stroke="#e11d48" stroke-width="2.6" stroke-linejoin="round" stroke-linecap="round"/><path d="M 1436.0 470.0 L 1425.6 476.0 L 1425.6 464.0 Z" fill="#e11d48"/><rect x="1345.0" y="739.7" width="93.9" height="26.5" rx="7" fill="white" stroke="#e11d48" stroke-width="1.1" opacity="0.97"/><text x="1392.0" y="756.8" font-family="'Helvetica Neue','Helvetica','Arial',sans-serif" font-size="11" font-weight="bold" fill="#be123c" text-anchor="middle">effort bounty</text><polyline points="591.9,810.0 591.9,860.0 360.0,860.0 360.0,902.0" fill="none" stroke="#7c3aed" stroke-width="2.8" stroke-linejoin="round" stroke-linecap="round"/><path d="M 360.0 902.0 L 354.0 891.6 L 366.0 891.6 Z" fill="#7c3aed"/><rect x="289.1" y="857.5" width="141.9" height="41.0" rx="7" fill="white" stroke="#7c3aed" stroke-width="1.1" opacity="0.97"/><text x="360.0" y="874.5" font-family="'Helvetica Neue','Helvetica','Arial',sans-serif" font-size="11" font-weight="bold" fill="#6d28d9" text-anchor="middle">claim α directly</text><text x="360.0" y="889.0" font-family="'Helvetica Neue','Helvetica','Arial',sans-serif" font-size="11" font-weight="bold" fill="#6d28d9" text-anchor="middle">O(log N) Merkle proof</text><circle cx="591.9" cy="808.0" r="13" fill="#7c3aed" stroke="white" stroke-width="2"/><text x="591.9" y="812.7" font-family="'Helvetica Neue','Helvetica','Arial',sans-serif" font-size="13.65" font-weight="bold" fill="white" text-anchor="middle">3</text><polyline points="150.0,556.0 150.0,902.0" fill="none" stroke="#64748b" stroke-width="2.2" stroke-linejoin="round" stroke-linecap="round" stroke-dasharray="6 5"/><path d="M 150.0 902.0 L 144.0 891.6 L 156.0 891.6 Z" fill="#64748b"/><rect x="87.6" y="703.2" width="124.7" height="53.6" rx="7" fill="white" stroke="#64748b" stroke-width="1.1" opacity="0.97"/><text x="150.0" y="719.8" font-family="'Helvetica Neue','Helvetica','Arial',sans-serif" font-size="10.5" font-weight="normal" fill="#475569" text-anchor="middle">/verify server</text><text x="150.0" y="733.7" font-family="'Helvetica Neue','Helvetica','Arial',sans-serif" font-size="10.5" font-weight="normal" fill="#475569" text-anchor="middle">commits payout root</text><text x="150.0" y="747.5" font-family="'Helvetica Neue','Helvetica','Arial',sans-serif" font-size="10.5" font-weight="normal" fill="#475569" text-anchor="middle">(never holds α)</text><path d="M 1500.0 510.0 C 1380.0 840.0 820.0 1000.0 548.0 978.0" fill="none" stroke="#d97706" stroke-width="2.6" stroke-linecap="round" stroke-dasharray="7 5"/><path d="M 548.0 978.0 L 559.7 972.4 L 558.7 985.4 Z" fill="#d97706"/><rect x="711.9" y="996.4" width="536.2" height="27.2" rx="7" fill="white" stroke="#d97706" stroke-width="1.1" opacity="0.97"/><text x="980.0" y="1013.8" font-family="'Helvetica Neue','Helvetica','Arial',sans-serif" font-size="11.5" font-weight="normal" fill="#b45309" text-anchor="middle">VERIFIER.md /verify trails:  walk provider chains, measuring liveness &amp; quality Q_n</text><rect x="479.0" y="1097.0" width="908" height="64" rx="12" fill="#0f172a" opacity="0.07"/><rect x="476.0" y="1092.0" width="908" height="64" rx="12" fill="#f8fafc" stroke="#cbd5e1" stroke-width="1.4"/><text x="930.0" y="1119.0" font-family="'Helvetica Neue','Helvetica','Arial',sans-serif" font-size="12.5" font-weight="bold" fill="#0f172a" text-anchor="middle">deposit  =  objective demand anchor      ×      quality (Q_n)  =  validator-measured modulator      —      Yuma turns it into miner emission</text><text x="930.0" y="1140.0" font-family="'Helvetica Neue','Helvetica','Arial',sans-serif" font-size="11" font-weight="italic" fill="#475569" text-anchor="middle">at bootstrap, governance caps the quality swing and widens it as the validator set and data mature</text></svg>