<svg xmlns="http://www.w3.org/2000/svg" width="1900" height="1290" viewBox="0 0 1900 1290"><rect width="1900" height="1290" fill="#ffffff"/><rect x="8" y="8" width="1884" height="1274" rx="16" fill="none" stroke="#eef2f7" stroke-width="2"/><text x="40.0" y="58.0" font-family="'Helvetica Neue','Helvetica','Arial',sans-serif" font-size="30" font-weight="bold" fill="#0f172a" text-anchor="start">UR Subnet — Mechanism at a glance</text><text x="40.0" y="86.0" font-family="'Helvetica Neue','Helvetica','Arial',sans-serif" font-size="14.5" font-weight="normal" fill="#475569" text-anchor="start">Two miner tiers in ONE mechanism (41% miner emission split by θ: routable-IP-breadth HEAD / implied_usage x Qn TAIL) — and every deposit is CONVICTION STAKE: locked in a buyback reserve, never distributed.  §1, §7.4, §8.4–8.5.</text><line x1="40" y1="104" x2="1860" y2="104" stroke="#e2e8f0" stroke-width="1.5"/><rect x="43.0" y="155.0" width="250" height="92" rx="13" fill="#0f172a" opacity="0.07"/><rect x="40.0" y="150.0" width="250" height="92" rx="13" fill="#ffffff" stroke="#64748b" stroke-width="1.8"/><path d="M 45.0 163.0 a 8 8 0 0 1 8 -8 L 277.0 155.0" fill="none"/><path d="M 40.0 163.0 Q 40.0 150.0 53.0 150.0 L 277.0 150.0 Q 290.0 150.0 290.0 163.0 L 290.0 180.0 L 40.0 180.0 Z" fill="#f8fafc"/><line x1="40.0" y1="180.0" x2="290.0" y2="180.0" stroke="#64748b" stroke-width="1"/><text x="54.0" y="171.0" font-family="'Helvetica Neue','Helvetica','Arial',sans-serif" font-size="15.5" font-weight="bold" fill="#475569" text-anchor="start">Customers</text><text x="54.0" y="200.0" font-family="'Helvetica Neue','Helvetica','Arial',sans-serif" font-size="12" font-weight="normal" fill="#0f172a" text-anchor="start">carries paid VPN / privacy</text><text x="54.0" y="217.0" font-family="'Helvetica Neue','Helvetica','Arial',sans-serif" font-size="12" font-weight="normal" fill="#0f172a" text-anchor="start">traffic — the real demand</text><rect x="43.0" y="377.0" width="300" height="184" rx="13" fill="#0f172a" opacity="0.07"/><rect x="40.0" y="372.0" width="300" height="184" rx="13" fill="#ffffff" stroke="#2563eb" stroke-width="1.8"/><path d="M 45.0 385.0 a 8 8 0 0 1 8 -8 L 327.0 377.0" fill="none"/><path d="M 40.0 385.0 Q 40.0 372.0 53.0 372.0 L 327.0 372.0 Q 340.0 372.0 340.0 385.0 L 340.0 402.0 L 40.0 402.0 Z" fill="#eff6ff"/><line x1="40.0" y1="402.0" x2="340.0" y2="402.0" stroke="#2563eb" stroke-width="1"/><text x="54.0" y="393.0" font-family="'Helvetica Neue','Helvetica','Arial',sans-serif" font-size="15.5" font-weight="bold" fill="#1d4ed8" text-anchor="start">Network Operator (NO)</text><text x="54.0" y="422.0" font-family="'Helvetica Neue','Helvetica','Arial',sans-serif" font-size="12" font-weight="normal" fill="#0f172a" text-anchor="start">runs privacy servers + the</text><text x="54.0" y="439.0" font-family="'Helvetica Neue','Helvetica','Arial',sans-serif" font-size="12" font-weight="normal" fill="#0f172a" text-anchor="start">/verify server (co-signs trails)</text><text x="54.0" y="456.1" font-family="'Helvetica Neue','Helvetica','Arial',sans-serif" font-size="12" font-weight="normal" fill="#0f172a" text-anchor="start"></text><text x="54.0" y="473.1" font-family="'Helvetica Neue','Helvetica','Arial',sans-serif" font-size="12" font-weight="normal" fill="#0f172a" text-anchor="start">holds NO α only — never holds</text><text x="54.0" y="490.2" font-family="'Helvetica Neue','Helvetica','Arial',sans-serif" font-size="12" font-weight="normal" fill="#0f172a" text-anchor="start">others' emission; directs the split</text><rect x="43.0" y="1005.0" width="470" height="152" rx="13" fill="#0f172a" opacity="0.07"/><rect x="40.0" y="1000.0" width="470" height="152" rx="13" fill="#ffffff" stroke="#7c3aed" stroke-width="1.8"/><path d="M 45.0 1013.0 a 8 8 0 0 1 8 -8 L 497.0 1005.0" fill="none"/><path d="M 40.0 1013.0 Q 40.0 1000.0 53.0 1000.0 L 497.0 1000.0 Q 510.0 1000.0 510.0 1013.0 L 510.0 1030.0 L 40.0 1030.0 Z" fill="#f5f3ff"/><line x1="40.0" y1="1030.0" x2="510.0" y2="1030.0" stroke="#7c3aed" stroke-width="1"/><text x="54.0" y="1021.0" font-family="'Helvetica Neue','Helvetica','Arial',sans-serif" font-size="15.5" font-weight="bold" fill="#6d28d9" text-anchor="start">Providers — the pool tier  (TAIL, 100k+)</text><text x="54.0" y="1050.0" font-family="'Helvetica Neue','Helvetica','Arial',sans-serif" font-size="11.5" font-weight="normal" fill="#0f172a" text-anchor="start">carry ingress / egress traffic inside a NO's pool — NOT on-chain UIDs</text><text x="54.0" y="1066.3" font-family="'Helvetica Neue','Helvetica','Arial',sans-serif" font-size="11.5" font-weight="normal" fill="#0f172a" text-anchor="start">(subnet cap ≈ 256), so each is a client_id paid by Merkle claim.</text><text x="54.0" y="1082.7" font-family="'Helvetica Neue','Helvetica','Arial',sans-serif" font-size="11.5" font-weight="normal" fill="#0f172a" text-anchor="start">claim α directly from the contract with an O(log N) proof.</text><text x="54.0" y="1099.0" font-family="'Helvetica Neue','Helvetica','Arial',sans-serif" font-size="11.5" font-weight="normal" fill="#0f172a" text-anchor="start">a provider STARTS here (the low-barrier on-ramp / baseline).</text><rect x="759.0" y="143.0" width="470" height="134" rx="13" fill="#0f172a" opacity="0.07"/><rect x="756.0" y="138.0" width="470" height="134" rx="13" fill="#ffffff" stroke="#0d9488" stroke-width="1.8"/><path d="M 761.0 151.0 a 8 8 0 0 1 8 -8 L 1213.0 143.0" fill="none"/><path d="M 756.0 151.0 Q 756.0 138.0 769.0 138.0 L 1213.0 138.0 Q 1226.0 138.0 1226.0 151.0 L 1226.0 168.0 L 756.0 168.0 Z" fill="#ecfdf5"/><line x1="756.0" y1="168.0" x2="1226.0" y2="168.0" stroke="#0d9488" stroke-width="1"/><text x="770.0" y="159.0" font-family="'Helvetica Neue','Helvetica','Arial',sans-serif" font-size="15.5" font-weight="bold" fill="#0f766e" text-anchor="start">Bittensor coinbase  (α emission)</text><rect x="770.0" y="196" width="79.6" height="30" fill="#64748b" opacity="0.9"/><text x="809.8" y="215.8" font-family="'Helvetica Neue','Helvetica','Arial',sans-serif" font-size="11.5" font-weight="bold" fill="white" text-anchor="middle">owner 18%</text><rect x="849.6" y="196" width="181.2" height="30" fill="#0d9488" opacity="0.9"/><text x="940.2" y="215.8" font-family="'Helvetica Neue','Helvetica','Arial',sans-serif" font-size="11.5" font-weight="bold" fill="white" text-anchor="middle">miner 41%</text><rect x="1030.8" y="196" width="181.2" height="30" fill="#d97706" opacity="0.9"/><text x="1121.4" y="215.8" font-family="'Helvetica Neue','Helvetica','Arial',sans-serif" font-size="11.5" font-weight="bold" fill="white" text-anchor="middle">validator 41%</text><rect x="770" y="196" width="442" height="30" rx="4" fill="none" stroke="#0d9488" stroke-width="1.2"/><text x="770.0" y="250.0" font-family="'Helvetica Neue','Helvetica','Arial',sans-serif" font-size="11.5" font-weight="italic" fill="#475569" text-anchor="start">standard 18 / 41 / 41 split — we do not fight the coinbase</text><rect x="1563.0" y="155.0" width="300" height="86" rx="13" fill="#0f172a" opacity="0.07"/><rect x="1560.0" y="150.0" width="300" height="86" rx="13" fill="#ffffff" stroke="#64748b" stroke-width="1.8"/><path d="M 1565.0 163.0 a 8 8 0 0 1 8 -8 L 1847.0 155.0" fill="none"/><path d="M 1560.0 163.0 Q 1560.0 150.0 1573.0 150.0 L 1847.0 150.0 Q 1860.0 150.0 1860.0 163.0 L 1860.0 180.0 L 1560.0 180.0 Z" fill="#f8fafc"/><line x1="1560.0" y1="180.0" x2="1860.0" y2="180.0" stroke="#64748b" stroke-width="1"/><text x="1574.0" y="171.0" font-family="'Helvetica Neue','Helvetica','Arial',sans-serif" font-size="15.5" font-weight="bold" fill="#475569" text-anchor="start">Subnet owner</text><text x="1574.0" y="200.0" font-family="'Helvetica Neue','Helvetica','Arial',sans-serif" font-size="11.5" font-weight="normal" fill="#0f172a" text-anchor="start">18% owner cut. Runs the majority</text><text x="1574.0" y="216.3" font-family="'Helvetica Neue','Helvetica','Arial',sans-serif" font-size="11.5" font-weight="normal" fill="#0f172a" text-anchor="start">validator early; the reserve backs it.</text><rect x="1563.0" y="261.0" width="300" height="178" rx="13" fill="#0f172a" opacity="0.07"/><rect x="1560.0" y="256.0" width="300" height="178" rx="13" fill="#ffffff" stroke="#d97706" stroke-width="1.8"/><path d="M 1565.0 269.0 a 8 8 0 0 1 8 -8 L 1847.0 261.0" fill="none"/><path d="M 1560.0 269.0 Q 1560.0 256.0 1573.0 256.0 L 1847.0 256.0 Q 1860.0 256.0 1860.0 269.0 L 1860.0 286.0 L 1560.0 286.0 Z" fill="#fffbeb"/><line x1="1560.0" y1="286.0" x2="1860.0" y2="286.0" stroke="#d97706" stroke-width="1"/><text x="1574.0" y="277.0" font-family="'Helvetica Neue','Helvetica','Arial',sans-serif" font-size="15.5" font-weight="bold" fill="#b45309" text-anchor="start">Validators  (owner-majority v1)</text><text x="1574.0" y="306.0" font-family="'Helvetica Neue','Helvetica','Arial',sans-serif" font-size="11" font-weight="normal" fill="#0f172a" text-anchor="start">anyone who stakes own α, runs</text><text x="1574.0" y="321.6" font-family="'Helvetica Neue','Helvetica','Arial',sans-serif" font-size="11" font-weight="normal" fill="#0f172a" text-anchor="start">/verify trails — no NO, no pool;</text><text x="1574.0" y="337.2" font-family="'Helvetica Neue','Helvetica','Arial',sans-serif" font-size="11" font-weight="normal" fill="#0f172a" text-anchor="start">scores BOTH miner tiers.</text><text x="1574.0" y="352.9" font-family="'Helvetica Neue','Helvetica','Arial',sans-serif" font-size="11" font-weight="normal" fill="#0f172a" text-anchor="start">native dividends (stake × vtrust);</text><text x="1574.0" y="368.5" font-family="'Helvetica Neue','Helvetica','Arial',sans-serif" font-size="11" font-weight="normal" fill="#0f172a" text-anchor="start">effort bounty: out of scope (D29).</text><text x="1574.0" y="384.1" font-family="'Helvetica Neue','Helvetica','Arial',sans-serif" font-size="11" font-weight="normal" fill="#0f172a" text-anchor="start">anti-gaming ON: commit–reveal,</text><text x="1574.0" y="399.7" font-family="'Helvetica Neue','Helvetica','Arial',sans-serif" font-size="11" font-weight="normal" fill="#0f172a" text-anchor="start">clip + vtrust · self-mask · bonds</text><rect x="1563.0" y="459.0" width="300" height="188" rx="13" fill="#0f172a" opacity="0.07"/><rect x="1560.0" y="454.0" width="300" height="188" rx="13" fill="#ffffff" stroke="#d97706" stroke-width="1.8"/><path d="M 1565.0 467.0 a 8 8 0 0 1 8 -8 L 1847.0 459.0" fill="none"/><path d="M 1560.0 467.0 Q 1560.0 454.0 1573.0 454.0 L 1847.0 454.0 Q 1860.0 454.0 1860.0 467.0 L 1860.0 484.0 L 1560.0 484.0 Z" fill="#fffbeb"/><line x1="1560.0" y1="484.0" x2="1860.0" y2="484.0" stroke="#d97706" stroke-width="1"/><text x="1574.0" y="475.0" font-family="'Helvetica Neue','Helvetica','Arial',sans-serif" font-size="15" font-weight="bold" fill="#b45309" text-anchor="start">Yuma  +  θ split</text><text x="1574.0" y="504.0" font-family="'Helvetica Neue','Helvetica','Arial',sans-serif" font-size="10.5" font-weight="normal" fill="#0f172a" text-anchor="start">stake-weighted median + clip +</text><text x="1574.0" y="518.9" font-family="'Helvetica Neue','Helvetica','Arial',sans-serif" font-size="10.5" font-weight="normal" fill="#0f172a" text-anchor="start">vtrust over commit–reveal weights</text><text x="1574.0" y="533.8" font-family="'Helvetica Neue','Helvetica','Arial',sans-serif" font-size="10.5" font-weight="normal" fill="#0f172a" text-anchor="start">— real, independent consensus.</text><text x="1574.0" y="548.7" font-family="'Helvetica Neue','Helvetica','Arial',sans-serif" font-size="10.5" font-weight="normal" fill="#0f172a" text-anchor="start"></text><text x="1574.0" y="563.6" font-family="'Helvetica Neue','Helvetica','Arial',sans-serif" font-size="10.5" font-weight="normal" fill="#0f172a" text-anchor="start">it allocates the 41% miner emission</text><text x="1574.0" y="578.5" font-family="'Helvetica Neue','Helvetica','Arial',sans-serif" font-size="10.5" font-weight="normal" fill="#0f172a" text-anchor="start">across the two tiers of UIDs:</text><text x="1574.0" y="593.5" font-family="'Helvetica Neue','Helvetica','Arial',sans-serif" font-size="10.5" font-weight="normal" fill="#0f172a" text-anchor="start">   1−θ  to NO pool UIDs  (tail)</text><text x="1574.0" y="608.4" font-family="'Helvetica Neue','Helvetica','Arial',sans-serif" font-size="10.5" font-weight="normal" fill="#0f172a" text-anchor="start">   θ    to top-miner UIDs (head)</text><rect x="1303.0" y="667.0" width="560" height="210" rx="13" fill="#0f172a" opacity="0.07"/><rect x="1300.0" y="662.0" width="560" height="210" rx="13" fill="#ffffff" stroke="#0891b2" stroke-width="1.8"/><path d="M 1305.0 675.0 a 8 8 0 0 1 8 -8 L 1847.0 667.0" fill="none"/><path d="M 1300.0 675.0 Q 1300.0 662.0 1313.0 662.0 L 1847.0 662.0 Q 1860.0 662.0 1860.0 675.0 L 1860.0 692.0 L 1300.0 692.0 Z" fill="#ecfeff"/><line x1="1300.0" y1="692.0" x2="1860.0" y2="692.0" stroke="#0891b2" stroke-width="1"/><text x="1314.0" y="683.0" font-family="'Helvetica Neue','Helvetica','Arial',sans-serif" font-size="15.5" font-weight="bold" fill="#0e7490" text-anchor="start">Top-level miner UIDs   (~200)</text><text x="1848.0" y="683.0" font-family="'Helvetica Neue','Helvetica','Arial',sans-serif" font-size="11.5" font-weight="bold" fill="#0891b2" text-anchor="end">HEAD</text><text x="1314.0" y="712.0" font-family="'Helvetica Neue','Helvetica','Arial',sans-serif" font-size="11.5" font-weight="normal" fill="#0f172a" text-anchor="start">the top ~200 providers — each claims its OWN miner UID: the canonical</text><text x="1314.0" y="728.3" font-family="'Helvetica Neue','Helvetica','Arial',sans-serif" font-size="11.5" font-weight="normal" fill="#0f172a" text-anchor="start">Bittensor treatment, MORE trust-minimized than the pool (no operator in path).</text><text x="1314.0" y="744.7" font-family="'Helvetica Neue','Helvetica','Arial',sans-serif" font-size="11.5" font-weight="normal" fill="#0f172a" text-anchor="start">NATIVE emission straight to the provider's own hotkey each tempo —</text><text x="1314.0" y="761.0" font-family="'Helvetica Neue','Helvetica','Arial',sans-serif" font-size="11.5" font-weight="normal" fill="#0f172a" text-anchor="start">no contract custody · no Merkle claim · no NO take, not shared.</text><text x="1314.0" y="777.3" font-family="'Helvetica Neue','Helvetica','Arial',sans-serif" font-size="11.5" font-weight="normal" fill="#0f172a" text-anchor="start">identity: client_id &lt;-&gt; hotkey binding (§11.4) — dual-signed, fail-closed.</text><rect x="1316" y="822" width="424" height="32" rx="6" fill="white" stroke="#0891b2" stroke-width="1.3"/><text x="1326.0" y="843.0" font-family="'Menlo','Monaco',monospace" font-size="12.5" font-weight="bold" fill="#0e7490" text-anchor="start">weight = IP score</text><text x="1476.0" y="843.0" font-family="'Helvetica Neue','Helvetica','Arial',sans-serif" font-size="10.5" font-weight="italic" fill="#475569" text-anchor="start">— split-adjusted routable egress IPs, NO deposit term (D27)</text><rect x="375.0" y="133.0" width="352" height="288" rx="12" fill="#0f172a" opacity="0.07"/><rect x="372.0" y="128.0" width="352" height="288" rx="12" fill="#ffffff" stroke="#cbd5e1" stroke-width="1.4"/><text x="388.0" y="154.0" font-family="'Helvetica Neue','Helvetica','Arial',sans-serif" font-size="14" font-weight="bold" fill="#0f172a" text-anchor="start">Flows  (all in α)</text><circle cx="400.0" cy="182.0" r="10" fill="#2563eb" stroke="white" stroke-width="2"/><text x="400.0" y="185.6" font-family="'Helvetica Neue','Helvetica','Arial',sans-serif" font-size="10.5" font-weight="bold" fill="white" text-anchor="middle">1</text><line x1="418" y1="182" x2="448" y2="182" stroke="#2563eb" stroke-width="3.6" stroke-linecap="round"/><path d="M 448.0 182.0 L 440.2 186.5 L 440.2 177.5 Z" fill="#2563eb"/><text x="462.0" y="179.0" font-family="'Helvetica Neue','Helvetica','Arial',sans-serif" font-size="12.5" font-weight="bold" fill="#0f172a" text-anchor="start">Deposits</text><text x="462.0" y="195.0" font-family="'Helvetica Neue','Helvetica','Arial',sans-serif" font-size="11" font-weight="normal" fill="#475569" text-anchor="start">conviction stake (from events)</text><circle cx="400.0" cy="215.0" r="10" fill="#0d9488" stroke="white" stroke-width="2"/><text x="400.0" y="218.6" font-family="'Helvetica Neue','Helvetica','Arial',sans-serif" font-size="10.5" font-weight="bold" fill="white" text-anchor="middle">2</text><line x1="418" y1="215" x2="448" y2="215" stroke="#0d9488" stroke-width="3.6" stroke-linecap="round"/><path d="M 448.0 215.0 L 440.2 219.5 L 440.2 210.5 Z" fill="#0d9488"/><text x="462.0" y="212.0" font-family="'Helvetica Neue','Helvetica','Arial',sans-serif" font-size="12.5" font-weight="bold" fill="#0f172a" text-anchor="start">Emission (Yuma)</text><text x="462.0" y="228.0" font-family="'Helvetica Neue','Helvetica','Arial',sans-serif" font-size="11" font-weight="normal" fill="#475569" text-anchor="start">split θ head / 1−θ tail</text><circle cx="400.0" cy="248.0" r="10" fill="#7c3aed" stroke="white" stroke-width="2"/><text x="400.0" y="251.6" font-family="'Helvetica Neue','Helvetica','Arial',sans-serif" font-size="10.5" font-weight="bold" fill="white" text-anchor="middle">3</text><line x1="418" y1="248" x2="448" y2="248" stroke="#7c3aed" stroke-width="3.6" stroke-linecap="round"/><path d="M 448.0 248.0 L 440.2 252.5 L 440.2 243.5 Z" fill="#7c3aed"/><text x="462.0" y="245.0" font-family="'Helvetica Neue','Helvetica','Arial',sans-serif" font-size="12.5" font-weight="bold" fill="#0f172a" text-anchor="start">Settlement</text><text x="462.0" y="261.0" font-family="'Helvetica Neue','Helvetica','Arial',sans-serif" font-size="11" font-weight="normal" fill="#475569" text-anchor="start">per-NO Merkle claims (tail)</text><line x1="418" y1="281" x2="448" y2="281" stroke="#0891b2" stroke-width="3.6" stroke-linecap="round"/><path d="M 448.0 281.0 L 440.2 285.5 L 440.2 276.5 Z" fill="#0891b2"/><text x="462.0" y="278.0" font-family="'Helvetica Neue','Helvetica','Arial',sans-serif" font-size="12.5" font-weight="bold" fill="#0f172a" text-anchor="start">Top-level miners</text><text x="462.0" y="294.0" font-family="'Helvetica Neue','Helvetica','Arial',sans-serif" font-size="11" font-weight="normal" fill="#475569" text-anchor="start">native, routable-IP score (head)</text><line x1="418" y1="314" x2="448" y2="314" stroke="#d97706" stroke-width="3.6" stroke-linecap="round" stroke-dasharray="6 4"/><path d="M 448.0 314.0 L 440.2 318.5 L 440.2 309.5 Z" fill="#d97706"/><text x="462.0" y="311.0" font-family="'Helvetica Neue','Helvetica','Arial',sans-serif" font-size="12.5" font-weight="bold" fill="#0f172a" text-anchor="start">Evaluation / quality</text><text x="462.0" y="327.0" font-family="'Helvetica Neue','Helvetica','Arial',sans-serif" font-size="11" font-weight="normal" fill="#475569" text-anchor="start">VALIDATOR.md /verify trails</text><line x1="418" y1="347" x2="448" y2="347" stroke="#e11d48" stroke-width="3.6" stroke-linecap="round"/><path d="M 448.0 347.0 L 440.2 351.5 L 440.2 342.5 Z" fill="#e11d48"/><text x="462.0" y="344.0" font-family="'Helvetica Neue','Helvetica','Arial',sans-serif" font-size="12.5" font-weight="bold" fill="#0f172a" text-anchor="start">Buyback reserve</text><text x="462.0" y="360.0" font-family="'Helvetica Neue','Helvetica','Arial',sans-serif" font-size="11" font-weight="normal" fill="#475569" text-anchor="start">deposits staked + locked (§7.4)</text><line x1="418" y1="380" x2="448" y2="380" stroke="#64748b" stroke-width="3.6" stroke-linecap="round" stroke-dasharray="6 4"/><path d="M 448.0 380.0 L 440.2 384.5 L 440.2 375.5 Z" fill="#64748b"/><text x="462.0" y="377.0" font-family="'Helvetica Neue','Helvetica','Arial',sans-serif" font-size="12.5" font-weight="bold" fill="#0f172a" text-anchor="start">Off-chain</text><text x="462.0" y="393.0" font-family="'Helvetica Neue','Helvetica','Arial',sans-serif" font-size="11" font-weight="normal" fill="#475569" text-anchor="start">revenue &amp; operations</text><rect x="443.0" y="465.0" width="720" height="372" rx="14" fill="#0f172a" opacity="0.07"/><rect x="440.0" y="460.0" width="720" height="372" rx="14" fill="#f8fafc" stroke="#334155" stroke-width="2.0"/><path d="M 440 474 Q 440 460 454 460 L 1146 460 Q 1160 460 1160 474 L 1160 506 L 440 506 Z" fill="#1e293b"/><text x="458.0" y="490.0" font-family="'Helvetica Neue','Helvetica','Arial',sans-serif" font-size="16.5" font-weight="bold" fill="white" text-anchor="start">ST CONTRACT</text><text x="590.0" y="490.0" font-family="'Helvetica Neue','Helvetica','Arial',sans-serif" font-size="12" font-weight="normal" fill="#cbd5e1" text-anchor="start">— Subtensor EVM · custodian + 7-day settlement</text><text x="1144.0" y="490.0" font-family="'Helvetica Neue','Helvetica','Arial',sans-serif" font-size="11" font-weight="italic" fill="#94a3b8" text-anchor="end">owns the pool UIDs (TAIL only)</text><rect x="456.0" y="518.0" width="336.0" height="140" rx="10" fill="#eff6ff" stroke="#2563eb" stroke-width="1.5"/><text x="468.0" y="542.0" font-family="'Helvetica Neue','Helvetica','Arial',sans-serif" font-size="13.5" font-weight="bold" fill="#1d4ed8" text-anchor="start">Deposits  (conviction stake)</text><text x="468.0" y="564.0" font-family="'Helvetica Neue','Helvetica','Arial',sans-serif" font-size="11.5" font-weight="normal" fill="#0f172a" text-anchor="start">NO deposit -&gt; Deposited event + full</text><text x="468.0" y="581.0" font-family="'Helvetica Neue','Helvetica','Arial',sans-serif" font-size="11.5" font-weight="normal" fill="#0f172a" text-anchor="start">amount into the reserve. NO DT ledger:</text><text x="468.0" y="598.0" font-family="'Helvetica Neue','Helvetica','Arial',sans-serif" font-size="11.5" font-weight="normal" fill="#0f172a" text-anchor="start">the contract weighs nothing (D25).</text><text x="468.0" y="615.0" font-family="'Helvetica Neue','Helvetica','Arial',sans-serif" font-size="11.5" font-weight="normal" fill="#0f172a" text-anchor="start">validators read deposits from events.</text><text x="468.0" y="646.0" font-family="'Helvetica Neue','Helvetica','Arial',sans-serif" font-size="10.5" font-weight="italic" fill="#1d4ed8" text-anchor="start">cumulative locked α sets the NO's rate tier</text><rect x="808.0" y="518.0" width="336.0" height="140" rx="10" fill="#ecfdf5" stroke="#0d9488" stroke-width="1.5"/><text x="820.0" y="542.0" font-family="'Helvetica Neue','Helvetica','Arial',sans-serif" font-size="12.5" font-weight="bold" fill="#0f766e" text-anchor="start">Miner-pool UIDs  (one per NO) — TAIL</text><text x="820.0" y="564.0" font-family="'Helvetica Neue','Helvetica','Arial',sans-serif" font-size="11.5" font-weight="normal" fill="#0f172a" text-anchor="start">contract-owned accrual slots — no</text><text x="820.0" y="581.0" font-family="'Helvetica Neue','Helvetica','Arial',sans-serif" font-size="11.5" font-weight="normal" fill="#0f172a" text-anchor="start">emission ever touches a NO's keys.</text><text x="820.0" y="598.0" font-family="'Helvetica Neue','Helvetica','Arial',sans-serif" font-size="11.5" font-weight="normal" fill="#0f172a" text-anchor="start"></text><text x="820.0" y="615.0" font-family="'Helvetica Neue','Helvetica','Arial',sans-serif" font-size="11.5" font-weight="normal" fill="#0f172a" text-anchor="start">validator weight  w_n = implied_usage x Qn</text><rect x="818.0" y="618" width="316.0" height="26" rx="5" fill="white" stroke="#0d9488" stroke-width="1.2"/><text x="826.0" y="636.0" font-family="'Menlo','Monaco',monospace" font-size="12" font-weight="bold" fill="#0f766e" text-anchor="start">implied_usage x Qn</text><text x="1130.0" y="636.0" font-family="'Helvetica Neue','Helvetica','Arial',sans-serif" font-size="10.5" font-weight="italic" fill="#475569" text-anchor="end">impl = dep / tier-rate</text><rect x="456.0" y="674.0" width="336.0" height="126" rx="10" fill="#f5f3ff" stroke="#7c3aed" stroke-width="1.5"/><text x="468.0" y="698.0" font-family="'Helvetica Neue','Helvetica','Arial',sans-serif" font-size="13.5" font-weight="bold" fill="#6d28d9" text-anchor="start">Per-NO Merkle payout roots</text><text x="468.0" y="720.0" font-family="'Helvetica Neue','Helvetica','Arial',sans-serif" font-size="11.5" font-weight="normal" fill="#0f172a" text-anchor="start">pool = earned emission ONLY (§8.3).</text><text x="468.0" y="737.0" font-family="'Helvetica Neue','Helvetica','Arial',sans-serif" font-size="11.5" font-weight="normal" fill="#0f172a" text-anchor="start">NO commits a payout root each epoch;</text><text x="468.0" y="754.0" font-family="'Helvetica Neue','Helvetica','Arial',sans-serif" font-size="11.5" font-weight="normal" fill="#0f172a" text-anchor="start">it directs the split but never holds α.</text><rect x="808.0" y="674.0" width="336.0" height="126" rx="10" fill="#fff1f2" stroke="#e11d48" stroke-width="1.5"/><text x="820.0" y="698.0" font-family="'Helvetica Neue','Helvetica','Arial',sans-serif" font-size="13.5" font-weight="bold" fill="#be123c" text-anchor="start">BUYBACK RESERVE  (§7.4)</text><text x="820.0" y="720.0" font-family="'Helvetica Neue','Helvetica','Arial',sans-serif" font-size="11.5" font-weight="normal" fill="#0f172a" text-anchor="start">every deposit, in full — staked to the</text><text x="820.0" y="737.0" font-family="'Helvetica Neue','Helvetica','Arial',sans-serif" font-size="11.5" font-weight="normal" fill="#0f172a" text-anchor="start">owner-validator hotkey. LOCKED (no</text><text x="820.0" y="754.0" font-family="'Helvetica Neue','Helvetica','Arial',sans-serif" font-size="11.5" font-weight="normal" fill="#0f172a" text-anchor="start">exit path) · dividends auto-compound.</text><line x1="165.0" y1="242.0" x2="165.0" y2="363.6" stroke="#64748b" stroke-width="2.4" stroke-linecap="round"/><path d="M 165.0 372.0 L 159.0 361.6 L 171.0 361.6 Z" fill="#64748b"/><rect x="85.1" y="286.5" width="159.9" height="41.0" rx="7" fill="white" stroke="#64748b" stroke-width="1.1" opacity="0.97"/><text x="165.0" y="303.5" font-family="'Helvetica Neue','Helvetica','Arial',sans-serif" font-size="11" font-weight="normal" fill="#475569" text-anchor="middle">usage revenue ($)</text><text x="165.0" y="318.0" font-family="'Helvetica Neue','Helvetica','Arial',sans-serif" font-size="11" font-weight="normal" fill="#475569" text-anchor="middle">off-chain reference rate</text><polyline points="340.0,470.0 396.0,470.0 396.0,588.0 454.0,588.0" fill="none" stroke="#2563eb" stroke-width="2.8" stroke-linejoin="round" stroke-linecap="round"/><path d="M 454.0 588.0 L 443.6 594.0 L 443.6 582.0 Z" fill="#2563eb"/><text x="396.0" y="452.0" font-family="'Helvetica Neue','Helvetica','Arial',sans-serif" font-size="11" font-weight="bold" fill="#1d4ed8" text-anchor="middle">deposit α — conviction stake</text><circle cx="396.0" cy="470.0" r="13" fill="#2563eb" stroke="white" stroke-width="2"/><text x="396.0" y="474.7" font-family="'Helvetica Neue','Helvetica','Arial',sans-serif" font-size="13.65" font-weight="bold" fill="white" text-anchor="middle">1</text><line x1="664.3" y1="658.0" x2="900.4" y2="671.5" stroke="#e11d48" stroke-width="2.6" stroke-linecap="round"/><path d="M 908.8 672.0 L 898.1 677.4 L 898.8 665.4 Z" fill="#e11d48"/><rect x="715.6" y="652.1" width="141.9" height="25.9" rx="7" fill="white" stroke="#e11d48" stroke-width="1.1" opacity="0.97"/><text x="786.6" y="668.7" font-family="'Helvetica Neue','Helvetica','Arial',sans-serif" font-size="10.5" font-weight="bold" fill="#be123c" text-anchor="middle">full amount -&gt; reserve</text><polyline points="940.0,272.0 940.0,314.0 1500.0,314.0 1500.0,512.0 1558.0,512.0" fill="none" stroke="#0d9488" stroke-width="2.8" stroke-linejoin="round" stroke-linecap="round"/><path d="M 1558.0 512.0 L 1547.6 518.0 L 1547.6 506.0 Z" fill="#0d9488"/><rect x="1170.0" y="300.7" width="123.9" height="26.5" rx="7" fill="white" stroke="#0d9488" stroke-width="1.1" opacity="0.97"/><text x="1232.0" y="317.8" font-family="'Helvetica Neue','Helvetica','Arial',sans-serif" font-size="11" font-weight="bold" fill="#0f766e" text-anchor="middle">41% miner emission</text><circle cx="940.0" cy="294.0" r="13" fill="#0d9488" stroke="white" stroke-width="2"/><text x="940.0" y="298.7" font-family="'Helvetica Neue','Helvetica','Arial',sans-serif" font-size="13.65" font-weight="bold" fill="white" text-anchor="middle">2</text><polyline points="1560.0,600.0 1330.0,600.0 1330.0,588.0 1146.0,588.0" fill="none" stroke="#0d9488" stroke-width="2.6" stroke-linejoin="round" stroke-linecap="round"/><path d="M 1146.0 588.0 L 1156.4 582.0 L 1156.4 594.0 Z" fill="#0d9488"/><text x="1452.0" y="592.0" font-family="'Helvetica Neue','Helvetica','Arial',sans-serif" font-size="11" font-weight="bold" fill="#0f766e" text-anchor="middle">1−θ to pool UIDs (tail)</text><line x1="1700.0" y1="640.0" x2="1700.0" y2="656.3" stroke="#0891b2" stroke-width="3.0" stroke-linecap="round"/><path d="M 1700.0 664.0 L 1694.5 654.5 L 1705.5 654.5 Z" fill="#0891b2"/><text x="1718.0" y="660.0" font-family="'Helvetica Neue','Helvetica','Arial',sans-serif" font-size="13" font-weight="bold" fill="#0e7490" text-anchor="start">θ  (head)</text><polyline points="1226.0,212.0 1492.0,212.0 1492.0,300.0 1558.0,300.0" fill="none" stroke="#0d9488" stroke-width="2.4" stroke-linejoin="round" stroke-linecap="round"/><path d="M 1558.0 300.0 L 1547.6 306.0 L 1547.6 294.0 Z" fill="#0d9488"/><rect x="1335.4" y="192.1" width="113.3" height="39.7" rx="7" fill="white" stroke="#0d9488" stroke-width="1.1" opacity="0.97"/><text x="1392.0" y="208.8" font-family="'Helvetica Neue','Helvetica','Arial',sans-serif" font-size="10.5" font-weight="normal" fill="#0f766e" text-anchor="middle">41% validator</text><text x="1392.0" y="222.6" font-family="'Helvetica Neue','Helvetica','Arial',sans-serif" font-size="10.5" font-weight="normal" fill="#0f766e" text-anchor="middle">emission (native)</text><polyline points="1226.0,162.0 1512.0,162.0 1512.0,186.0 1558.0,186.0" fill="none" stroke="#0d9488" stroke-width="2.2" stroke-linejoin="round" stroke-linecap="round"/><path d="M 1558.0 186.0 L 1547.6 192.0 L 1547.6 180.0 Z" fill="#0d9488"/><rect x="1423.0" y="144.7" width="34.0" height="26.5" rx="7" fill="white" stroke="#0d9488" stroke-width="1.1" opacity="0.97"/><text x="1440.0" y="161.8" font-family="'Helvetica Neue','Helvetica','Arial',sans-serif" font-size="11" font-weight="bold" fill="#0f766e" text-anchor="middle">18%</text><line x1="1144.0" y1="684.0" x2="1550.8" y2="434.4" stroke="#e11d48" stroke-width="2.6" stroke-linecap="round"/><path d="M 1558.0 430.0 L 1552.3 440.5 L 1546.0 430.3 Z" fill="#e11d48"/><rect x="1252.7" y="540.1" width="250.6" height="39.7" rx="7" fill="white" stroke="#e11d48" stroke-width="1.1" opacity="0.97"/><text x="1378.0" y="556.8" font-family="'Helvetica Neue','Helvetica','Arial',sans-serif" font-size="10.5" font-weight="bold" fill="#be123c" text-anchor="middle">staked to the owner-validator hotkey</text><text x="1378.0" y="570.6" font-family="'Helvetica Neue','Helvetica','Arial',sans-serif" font-size="10.5" font-weight="bold" fill="#be123c" text-anchor="middle">locked · dividends auto-compound (take 0)</text><polyline points="590.4,800.0 590.4,930.0 300.0,930.0 300.0,998.0" fill="none" stroke="#7c3aed" stroke-width="2.8" stroke-linejoin="round" stroke-linecap="round"/><path d="M 300.0 998.0 L 294.0 987.6 L 306.0 987.6 Z" fill="#7c3aed"/><rect x="229.1" y="945.5" width="141.9" height="41.0" rx="7" fill="white" stroke="#7c3aed" stroke-width="1.1" opacity="0.97"/><text x="300.0" y="962.5" font-family="'Helvetica Neue','Helvetica','Arial',sans-serif" font-size="11" font-weight="bold" fill="#6d28d9" text-anchor="middle">claim α directly</text><text x="300.0" y="977.0" font-family="'Helvetica Neue','Helvetica','Arial',sans-serif" font-size="11" font-weight="bold" fill="#6d28d9" text-anchor="middle">O(log N) Merkle proof</text><circle cx="590.4" cy="798.0" r="13" fill="#7c3aed" stroke="white" stroke-width="2"/><text x="590.4" y="802.7" font-family="'Helvetica Neue','Helvetica','Arial',sans-serif" font-size="13.65" font-weight="bold" fill="white" text-anchor="middle">3</text><polyline points="160.0,556.0 160.0,998.0" fill="none" stroke="#64748b" stroke-width="2.2" stroke-linejoin="round" stroke-linecap="round" stroke-dasharray="6 5"/><path d="M 160.0 998.0 L 154.0 987.6 L 166.0 987.6 Z" fill="#64748b"/><rect x="97.6" y="733.2" width="124.7" height="53.6" rx="7" fill="white" stroke="#64748b" stroke-width="1.1" opacity="0.97"/><text x="160.0" y="749.8" font-family="'Helvetica Neue','Helvetica','Arial',sans-serif" font-size="10.5" font-weight="normal" fill="#475569" text-anchor="middle">/verify server</text><text x="160.0" y="763.7" font-family="'Helvetica Neue','Helvetica','Arial',sans-serif" font-size="10.5" font-weight="normal" fill="#475569" text-anchor="middle">commits payout root</text><text x="160.0" y="777.5" font-family="'Helvetica Neue','Helvetica','Arial',sans-serif" font-size="10.5" font-weight="normal" fill="#475569" text-anchor="middle">(never holds α)</text><path d="M 1600.0 442.0 C 1210.0 720.0 680.0 1055.0 512.0 1002.0" fill="none" stroke="#d97706" stroke-width="2.6" stroke-linecap="round" stroke-dasharray="7 5"/><path d="M 512.0 1002.0 L 524.7 999.2 L 520.8 1011.6 Z" fill="#d97706"/><rect x="624.1" y="909.5" width="363.7" height="41.0" rx="7" fill="white" stroke="#d97706" stroke-width="1.1" opacity="0.97"/><text x="806.0" y="926.5" font-family="'Helvetica Neue','Helvetica','Arial',sans-serif" font-size="11" font-weight="normal" fill="#b45309" text-anchor="middle">VALIDATOR.md /verify trails: walk provider chains,</text><text x="806.0" y="941.0" font-family="'Helvetica Neue','Helvetica','Arial',sans-serif" font-size="11" font-weight="normal" fill="#b45309" text-anchor="middle">measuring liveness/quality (Qn) + egress-IP breadth (head)</text><line x1="1580.0" y1="872.0" x2="1580.0" y2="901.6" stroke="#0891b2" stroke-width="2.8" stroke-linecap="round"/><path d="M 1580.0 910.0 L 1574.0 899.6 L 1586.0 899.6 Z" fill="#0891b2"/><rect x="1434.7" y="912.1" width="290.7" height="39.7" rx="7" fill="white" stroke="#0891b2" stroke-width="1.1" opacity="0.97"/><text x="1580.0" y="928.8" font-family="'Helvetica Neue','Helvetica','Arial',sans-serif" font-size="10.5" font-weight="bold" fill="#0e7490" text-anchor="middle">a top provider's own coldkey</text><text x="1580.0" y="942.6" font-family="'Helvetica Neue','Helvetica','Arial',sans-serif" font-size="10.5" font-weight="bold" fill="#0e7490" text-anchor="middle">paid directly — no NO middleman, trust-minimized</text><path d="M 516.0 1058.0 C 910.0 1206.0 1150.0 1010.0 1322.0 858.0" fill="none" stroke="#0891b2" stroke-width="2.4" stroke-linecap="round" stroke-dasharray="2 7"/><path d="M 1322.0 858.0 L 1317.9 870.3 L 1309.3 860.6 Z" fill="#0891b2"/><rect x="673.2" y="1182.7" width="525.6" height="26.5" rx="7" fill="white" stroke="#0891b2" stroke-width="1.1" opacity="0.97"/><text x="936.0" y="1199.8" font-family="'Helvetica Neue','Helvetica','Arial',sans-serif" font-size="11" font-weight="bold" fill="#0e7490" text-anchor="middle">a provider starts in a pool, GRADUATES to a top slot, and FALLS BACK if quality slips</text><rect x="473.0" y="1217.0" width="960" height="66" rx="12" fill="#0f172a" opacity="0.07"/><rect x="470.0" y="1212.0" width="960" height="66" rx="12" fill="#f8fafc" stroke="#cbd5e1" stroke-width="1.4"/><text x="950.0" y="1239.0" font-family="'Helvetica Neue','Helvetica','Arial',sans-serif" font-size="12.5" font-weight="bold" fill="#0f172a" text-anchor="middle">pool = implied_usage x quality (baseline)    ·    head = routable-IP breadth, native (merit apex)    ·    both tiers paid from EMISSION ONLY</text><text x="950.0" y="1260.0" font-family="'Helvetica Neue','Helvetica','Arial',sans-serif" font-size="11" font-weight="italic" fill="#475569" text-anchor="middle">deposits are conviction stake (read from events, no DT ledger); validators weight the pools; each is a buy-and-lock buyback (§7.4); θ ≈ 0.3 then widen (§8.5)</text></svg>